# AST/ASF file generated using VICON BodyLanguage
# -----------------------------------------------
:version 1.10
:name VICON
:units
  mass 1.0
  length 0.45
  angle deg
:documentation
   .ast/.asf automatically generated from VICON data using
   VICON BodyBuilder and BodyLanguage model FoxedUp or BRILLIANT.MOD
:root
   order TX TY TZ RX RY RZ
   axis XYZ
   position 0 0 0  
   orientation 0 0 0 
:bonedata
  begin
     id 1 
     name lhipjoint
     direction 0.576517 -0.752066 0.319413 
     length 2.45433 
     axis 0 0 0  XYZ
  end
  begin
     id 2 
     name lfemur
     direction 0.34202 -0.939693 0  
     length 7.54459  
     axis 0 0 20  XYZ
    dof rx ry rz
    limits (-160.0 20.0)
           (-70.0 70.0)
           (-60.0 70.0)
  end
  begin
     id 3 
     name ltibia
     direction 0.34202 -0.939693 0   
     length 7.73986   
     axis 0 0 20   XYZ
    dof rx
    limits (-10.0 170.0)
  end
  begin
     id 4 
     name lfoot
     direction 0.090693 -0.249177 0.964202   
     length 2.28437   
     axis -90 7.62852e-016 20   XYZ
    dof rx rz
    limits (-45.0 90.0)
           (-70.0 20.0)
  end
  begin
     id 5 
     name ltoes
     direction 1.5356e-011 -4.21928e-011 1   
     length 1.14243   
     axis -90 7.62852e-016 20   XYZ
    dof rx
    limits (-90.0 20.0)
  end
  begin
     id 6 
     name rhipjoint
     direction -0.573937 -0.753736 0.320122   
     length 2.44889  
     axis 0 0 0  XYZ 
  end
  begin
     id 7 
     name rfemur
     direction -0.34202 -0.939693 0   
     length 7.50166   
     axis 0 0 -20   XYZ
    dof rx ry rz
    limits (-160.0 20.0)
           (-70.0 70.0)
           (-70.0 60.0)
  end
  begin
     id 8 
     name rtibia
     direction -0.34202 -0.939693 0   
     length 7.54266   
     axis 0 0 -20   XYZ
    dof rx
    limits (-10.0 170.0)
 end
 begin
     id 9 
     name rfoot
     direction -0.114017 -0.31326 0.942798   
     length 2.34212  
     axis -90 -7.62852e-016 -20   XYZ
    dof rx rz
    limits (-45.0 90.0)
           (-20.0 70.0)
  end
  begin
     id 10 
     name rtoes
     direction -1.53557e-011 -4.21867e-011 1   
     length 1.16246   
     axis -90 -7.62852e-016 -20   XYZ
    dof rx
    limits (-90.0 20.0)
  end
  begin
     id 11 
     name lowerback
     direction -0.0228371 0.999155 -0.034167   
     length 2.0537   
     axis 0 0 0   XYZ
    dof rx ry rz
    limits (-20.0 45.0)
           (-30.0 30.0)
           (-30.0 30.0)
  end
  begin
     id 12 
     name upperback
     direction 0.0198981 0.999794 0.00389455   
     length 2.05302   
     axis 0 0 0   XYZ
    dof rx ry rz
    limits (-20.0 45.0)
           (-30.0 30.0)
           (-30.0 30.0)
  end
  begin
     id 13 
     name thorax
     direction 0.0304566 0.99935 0.0192987   
     length 2.05315   
     axis 0 0 0   XYZ
    dof rx ry rz
    limits (-20.0 45.0)
           (-30.0 30.0)
           (-30.0 30.0)
  end
  begin
     id 14 
     name lowerneck
     direction -0.0196762 0.99417 0.106017   
     length 1.82056   
     axis 0 0 0   XYZ
    dof rx ry rz
    limits (-20.0 45.0)
           (-30.0 30.0)
           (-30.0 30.0)
  end
  begin
     id 15 
     name upperneck
     direction 0.00517787 0.9802 -0.197944   
     length 1.83835   
     axis 0 0 0   XYZ
    dof rx ry rz
    limits (-20.0 45.0)
           (-30.0 30.0)
           (-30.0 30.0)
  end
  begin
     id 16
     name head
     direction 0.00211419 0.996945 -0.078081  
     length 1.85629  
     axis 0 0 0   XYZ
    dof rx ry rz
    limits (-20.0 45.0)
           (-30.0 30.0)
           (-30.0 30.0)
  end
  begin
     id 17 
     name lclavicle
     direction 0.930001 0.365811 -0.0357824  
     length 3.81961  
     axis 0 0 0   XYZ
    dof ry rz
    limits (-20.0 10.0)
           (0.0 20.0)
  end
  begin
     id 18 
     name lhumerus
     direction 1 -4.48968e-011 -3.06644e-027   
     length 5.14507   
     axis 180 -30 -90   XYZ
    dof rx ry rz
    limits (-60.0 90.0)
           (-90.0 90.0)
           (-90.0 90.0)
  end
  begin
     id 19
     name lradius
     direction 1 -4.48965e-011 9.06925e-028   
     length 3.50646   
     axis 180 -30 -90   XYZ
    dof rx
    limits (-10.0 170.0)
  end
  begin
     id 20
     name lwrist
     direction 1 -4.48957e-011 1.03922e-027   
     length 1.75323   
     axis -2.56395e-016 90 90   XYZ
    dof ry
    limits (-180.0 0.0)
 end
  begin
     id 21 
     name lhand
     direction 1 -4.48967e-011 2.08017e-027   
     length 0.629969   
     axis -1.32723e-015 90 90   XYZ
    dof rx rz
    limits (-90.0 90.0)
           (-45.0 45.0)
  end
  begin
     id 22 
     name lfingers
     direction 1 -4.49089e-011 4.20095e-027   
     length 0.507897   
     axis -2.6545e-015 90 90   XYZ
    dof rx
    limits (0.0 90.0)
  end
  begin
     id 23
     name lthumb
     direction 0.707107 -6.35001e-011 0.707107   
     length 0.729241   
     axis -90 45 5.05613e-014   XYZ
    dof rx rz
    limits (-45.0 45.0)
           (-45.0 45.0)
  end
  begin
     id 24 
     name rclavicle
     direction -0.881882 0.464123 -0.0829113   
     length 3.47515  
     axis 0 0 0   XYZ 
    dof ry rz
    limits (-10.0 20.0)
           (-20.0 0.0)
  end
  begin
     id 25 
     name rhumerus
     direction -1 -4.48961e-011 -1.55672e-027  
     length 5.232   
     axis 180 30 90   XYZ
    dof rx ry rz
    limits (-90.0 60.0)
           (-90.0 90.0)
           (-90.0 90.0)
  end
  begin
     id 26 
     name rradius
     direction -1 -4.48963e-011 6.18178e-029   
     length 3.65641   
     axis 180 30 90   XYZ
    dof rx
    limits (-10.0 170.0)
  end
  begin
     id 27 
     name rwrist
     direction -1 -4.48982e-011 1.04136e-027   
     length 1.8282   
     axis -2.56395e-016 -90 -90   XYZ
    dof ry
    limits (-180.0 0.0)
  end
  begin
     id 28
     name rhand
     direction -1 -4.48929e-011 2.07378e-027   
     length 0.656807   
     axis -1.32723e-015 -90 -90   XYZ
    dof rx rz
    limits (-90.0 90.0)
           (-45.0 45.0)
  end
  begin
     id 29
     name rfingers
     direction -1 -4.489e-011 4.13816e-027   
     length 0.529535   
     axis -2.6545e-015 -90 -90   XYZ
    dof rx
    limits (0.0 90.0)
  end
  begin
     id 30
     name rthumb
     direction -0.707107 -6.34843e-011 0.707107   
     length 0.760309   
     axis -90 -45 -5.05613e-014   XYZ
    dof rx rz
    limits (-45.0 45.0)
           (-45.0 45.0)
  end
:hierarchy
  begin
    root lhipjoint rhipjoint lowerback
    lhipjoint lfemur
    lfemur ltibia
    ltibia lfoot
    lfoot ltoes
    rhipjoint rfemur
    rfemur rtibia
    rtibia rfoot
    rfoot rtoes
    lowerback upperback
    upperback thorax
    thorax lowerneck lclavicle rclavicle
    lowerneck upperneck
    upperneck head
    lclavicle lhumerus
    lhumerus lradius
    lradius lwrist
    lwrist lhand lthumb
    lhand lfingers
    rclavicle rhumerus
    rhumerus rradius
    rradius rwrist
    rwrist rhand rthumb
    rhand rfingers
  end

#!OML:ASF H:\ManfredETheater\Project 1\Capture day 1\Session 1\subject.ASF
:FULLY-SPECIFIED
:DEGREES
16
root 5.45316 15.1845 39.3873 -152.122 -14.0036 171.596
lowerback 23.8095 -1.7386 -4.39735
upperback 1.51899 -3.88786 -0.450175
thorax -11.3831 -1.74591 3.31848
lowerneck -18.4337 -2.41602 -3.16331
upperneck -10.7367 -4.35262 4.48254
head -0.219545 -2.84593 1.7429
rclavicle -6.25178e-014 2.20651e-014
rhumerus -49.8744 -2.01114 -85.1613
rradius 61.8258
rwrist 0.371783
rhand -26.8954 -11.1291
rfingers 7.12502
rthumb -0.319086 -41.1086
lclavicle -6.25178e-014 2.20651e-014
lhumerus -28.5711 -15.7718 90.2838
lradius 80.8891
lwrist 5.7078
lhand -27.8035 -12.9473
lfingers 7.12502
lthumb -1.19611 17.0291
rfemur -58.916 -13.304 16.8875
rtibia 94.6965
rfoot -17.525 -18.2847
rtoes -22.8828
lfemur -50.372 -1.64253 -25.4185
ltibia 67.0683
lfoot -37.1571 -3.35347
ltoes 0.657122
17
root 5.42011 15.1497 39.059 -152.436 -14.1637 171.451
lowerback 23.9082 -1.96601 -4.58946
upperback 1.60028 -4.23035 -0.291621
thorax -11.2896 -1.8989 3.71737
lowerneck -18.5189 -2.21731 -3.0268
upperneck -10.6456 -4.12208 4.47572
head -0.187476 -2.7369 1.72791
rclavicle -4.17448e-014 1.98785e-015
rhumerus -51.1073 -2.84059 -84.0993
rradius 59.833
rwrist -0.264138
rhand -26.9812 -10.58
rfingers 7.12502
rthumb -0.401932 -40.5593
lclavicle -4.17448e-014 1.98785e-015
lhumerus -27.2522 -15.873 90.5837
lradius 81.7589
lwrist 5.36631
lhand -27.7327 -13.1156
lfingers 7.12502
lthumb -1.12775 16.8611
rfemur -62.0883 -13.3935 16.7672
rtibia 94.8246
rfoot -18.099 -18.221
rtoes -23.1931
lfemur -48.5434 -1.60353 -25.3313
ltibia 67.0164
lfoot -37.9013 -3.38186
ltoes -0.302669
18
root 5.38839 15.1207 38.7224 -152.796 -14.3641 171.345
lowerback 23.9912 -2.20701 -4.74868
upperback 1.67662 -4.5778 -0.113059
thorax -11.1885 -2.05587 4.11998
lowerneck -18.6269 -2.02742 -2.88263
upperneck -10.486 -3.89905 4.44216
head -0.129487 -2.6277 1.70133
rclavicle 1.30701e-014 -2.16675e-014
rhumerus -52.4619 -3.54938 -82.9508
rradius 58.0661
rwrist -0.924632
rhand -27.0572 -9.9916
rfingers 7.12502
rthumb -0.475296 -39.9708
lclavicle 1.30701e-014 -2.16675e-014
lhumerus -26.1242 -16.0201 90.9226
lradius 82.9731
lwrist 5.07843
lhand -27.6375 -13.2271
lfingers 7.12502
lthumb -1.03578 16.7501
rfemur -65.0304 -13.4318 16.6512
rtibia 94.4586
rfoot -18.4335 -18.0403
rtoes -23.6543
lfemur -46.611 -1.54985 -25.1579
ltibia 66.8613
lfoot -38.4866 -3.45304
ltoes -1.76171
19
root 5.35795 15.0978 38.377 -153.198 -14.6154 171.275
lowerback 24.0395 -2.46192 -4.87014
upperback 1.75843 -4.92867 0.0859032
thorax -11.0583 -2.21799 4.52127
lowerneck -18.7676 -1.84991 -2.7366
upperneck -10.2755 -3.69001 4.38831
head -0.0492035 -2.52287 1.66632
rclavicle -2.77305e-014 2.46493e-014
rhumerus -53.9541 -4.12675 -81.735
rradius 56.6274
rwrist -1.54193
rhand -27.1691 -9.39642
rfingers 7.12502
rthumb -0.583367 -39.3754
lclavicle -2.77305e-014 2.46493e-014
lhumerus -25.1645 -16.2632 91.2891
lradius 84.5264
lwrist 4.89552
lhand -27.5532 -13.2672
lfingers 7.12502
lthumb -0.95437 16.7104
rfemur -67.7069 -13.4385 16.5343
rtibia 93.6147
rfoot -18.5458 -17.7664
rtoes -24.2853
lfemur -44.5762 -1.50639 -24.8858
ltibia 66.5888
lfoot -38.9117 -3.60906
ltoes -3.58617
